<svg xmlns="http://www.w3.org/2000/svg" width="250.98" height="44.111" viewBox="0 0 250.98 44.111">
  <g id="logo-fever" transform="translate(0 0.003)">
    <path id="Path_1" data-name="Path 1" d="M7000.606,6984.479H6970.7a3.587,3.587,0,0,0-2.412.951,3.893,3.893,0,0,0-1.3,2.2l-1.115,6.3h25.2l-1.969,11.025H6963.97l-2.33,12.6H6950.6l6.76-37.733a7.593,7.593,0,0,1,2.642-4.446,7.2,7.2,0,0,1,4.774-1.853h37.733Z" transform="translate(-6950.6 -6973.452)" fill="#e43917"/>
    <path id="Path_2" data-name="Path 2" d="M7023.61,7017.581h-37.733a5.039,5.039,0,0,1-4.167-1.854,5.184,5.184,0,0,1-1.016-4.445l5.658-31.5a7.514,7.514,0,0,1,2.641-4.446,7.2,7.2,0,0,1,4.758-1.853h31.5a5.1,5.1,0,0,1,4.184,1.854,5.25,5.25,0,0,1,1.016,4.445l-2.983,16.538a7.462,7.462,0,0,1-2.642,4.446,7.125,7.125,0,0,1-4.759,1.853h-26.773l-.147.787a2.63,2.63,0,0,0,.509,2.215,2.545,2.545,0,0,0,2.085.936h29.841Zm-5.823-29.137.164-.787a2.657,2.657,0,0,0-.51-2.2,2.507,2.507,0,0,0-2.1-.951h-15.75a3.475,3.475,0,0,0-2.4.95,3.8,3.8,0,0,0-1.3,2.2l-.163.788a2.709,2.709,0,0,0,.51,2.215,2.538,2.538,0,0,0,2.1.935H7014.1a3.519,3.519,0,0,0,2.4-.934,3.886,3.886,0,0,0,1.3-2.217Z" transform="translate(-6931.409 -6973.479)" fill="#e43917"/>
    <path id="Path_3" data-name="Path 3" d="M7059.739,6973.48l-28.35,44.1h-6.3l-9.449-44.1h11.025l4.807,27.513,17.211-27.513Z" transform="translate(-6908.935 -6973.478)" fill="#e43917"/>
    <path id="Path_4" data-name="Path 4" d="M7084.674,7017.581h-37.733a5.051,5.051,0,0,1-4.184-1.854,5.283,5.283,0,0,1-1.018-4.444l5.677-31.5a7.476,7.476,0,0,1,2.624-4.447,7.206,7.206,0,0,1,4.776-1.853h31.5a5.069,5.069,0,0,1,4.168,1.854,5.25,5.25,0,0,1,1.033,4.445l-3,16.538a7.515,7.515,0,0,1-2.625,4.446,7.153,7.153,0,0,1-4.774,1.854H7054.34l-.132.787a2.567,2.567,0,0,0,.509,2.215,2.491,2.491,0,0,0,2.084.935h29.908Zm-5.824-29.137.147-.787a2.54,2.54,0,0,0-.508-2.2,2.473,2.473,0,0,0-2.084-.952h-15.75a3.516,3.516,0,0,0-2.412.951,3.892,3.892,0,0,0-1.3,2.2l-.147.786a2.59,2.59,0,0,0,.509,2.216,2.508,2.508,0,0,0,2.083.935h15.75a3.6,3.6,0,0,0,2.412-.935A3.965,3.965,0,0,0,7078.85,6988.444Z" transform="translate(-6892.297 -6973.479)" fill="#e43917"/>
    <path id="Path_5" data-name="Path 5" d="M7121.945,6984.479h-29.908a3.539,3.539,0,0,0-2.395.951,3.715,3.715,0,0,0-1.3,2.2l-5.364,29.924h-11.042l6.776-37.733a7.472,7.472,0,0,1,2.625-4.447,7.2,7.2,0,0,1,4.774-1.854h37.733Z" transform="translate(-6872.868 -6973.452)" fill="#e43917"/>
  </g>
</svg>
